# xmcd CD database file
#
# Track frame offsets:
#	150
#	16095
#	39865
#	58545
#	83715
#	102315
#	122362
#	145852
#	159657
#	175832
#	200057
#
# Disc length: 2791 seconds
#
# Revision: 2
# Processed by: cddbd v1.5.2PL0 Copyright (c) Steve Scherf et al.
# Submitted via: CDex 1.51
#
DISCID=840ae50b
DTITLE=The Battered Ornaments - Mantle-Piece
DYEAR=1969
DGENRE=Psychedelic
TTITLE0=Sunshades
TTITLE1=Late Into The Night
TTITLE2=Then I Must Go
TTITLE3=The Crosswords And The Safety Pins
TTITLE4=Staggered
TTITLE5=Twisted Track
TTITLE6=Smoke Rings
TTITLE7=Take Me Now
TTITLE8=My Love's Gone Far Away
TTITLE9=The Week Looked Good On Paper
TTITLE10=Living Life Backwards
EXTD=YEAR: 1969
EXTT0=
EXTT1=
EXTT2=
EXTT3=
EXTT4=
EXTT5=
EXTT6=
EXTT7=
EXTT8=
EXTT9=
EXTT10=
PLAYORDER=
